<svg xmlns="http://www.w3.org/2000/svg" xmlns:xlink="http://www.w3.org/1999/xlink" width="600" zoomAndPan="magnify" viewBox="0 0 450 112.499997" height="150" preserveAspectRatio="xMidYMid meet" version="1.0"><defs><filter x="0%" y="0%" width="100%" height="100%" id="384e275c20"><feColorMatrix values="0 0 0 0 1 0 0 0 0 1 0 0 0 0 1 0 0 0 1 0" color-interpolation-filters="sRGB"/></filter><g/><clipPath id="55fa4cfcd7"><path d="M 0.996094 0 L 449.003906 0 L 449.003906 112.003906 L 0.996094 112.003906 Z M 0.996094 0 " clip-rule="nonzero"/></clipPath><clipPath id="ff9226ec90"><path d="M 0.996094 0 L 449.003906 0 L 449.003906 112.003906 L 0.996094 112.003906 Z M 0.996094 0 " clip-rule="nonzero"/></clipPath><clipPath id="4feda6598b"><path d="M 0.996094 0 L 449.003906 0 L 449.003906 112.003906 L 0.996094 112.003906 Z M 0.996094 0 " clip-rule="nonzero"/></clipPath><clipPath id="77b0c03b1f"><path d="M 0.996094 0 L 449.003906 0 L 449.003906 112.003906 L 0.996094 112.003906 Z M 0.996094 0 " clip-rule="nonzero"/></clipPath><linearGradient x1="-0.976427" gradientTransform="matrix(0.832162, 0, 0, 0.831823, 104.933066, 3.299267)" y1="-127.890428" x2="335.530544" gradientUnits="userSpaceOnUse" y2="208.616544" id="f243e1e050"><stop stop-opacity="1" stop-color="rgb(3.529358%, 32.548523%, 94.119263%)" offset="0"/><stop stop-opacity="1" stop-color="rgb(3.529358%, 32.548523%, 94.119263%)" offset="0.125"/><stop stop-opacity="1" stop-color="rgb(3.529358%, 32.548523%, 94.119263%)" offset="0.1875"/><stop stop-opacity="1" stop-color="rgb(4.208374%, 32.579041%, 93.670654%)" offset="0.191406"/><stop stop-opacity="1" stop-color="rgb(4.888916%, 32.609558%, 93.223572%)" offset="0.195312"/><stop stop-opacity="1" stop-color="rgb(5.891418%, 32.653809%, 92.562866%)" offset="0.199219"/><stop stop-opacity="1" stop-color="rgb(6.895447%, 32.699585%, 91.902161%)" offset="0.203125"/><stop stop-opacity="1" stop-color="rgb(7.897949%, 32.743835%, 91.241455%)" offset="0.207031"/><stop stop-opacity="1" stop-color="rgb(8.900452%, 32.789612%, 90.582275%)" offset="0.210938"/><stop stop-opacity="1" stop-color="rgb(9.902954%, 32.833862%, 89.92157%)" offset="0.214844"/><stop stop-opacity="1" stop-color="rgb(10.906982%, 32.878113%, 89.260864%)" offset="0.21875"/><stop stop-opacity="1" stop-color="rgb(11.909485%, 32.922363%, 88.600159%)" offset="0.222656"/><stop stop-opacity="1" stop-color="rgb(12.911987%, 32.96814%, 87.940979%)" offset="0.226562"/><stop stop-opacity="1" stop-color="rgb(13.91449%, 33.01239%, 87.280273%)" offset="0.230469"/><stop stop-opacity="1" stop-color="rgb(14.916992%, 33.058167%, 86.619568%)" offset="0.234375"/><stop stop-opacity="1" stop-color="rgb(15.919495%, 33.102417%, 85.958862%)" offset="0.238281"/><stop stop-opacity="1" stop-color="rgb(16.923523%, 33.148193%, 85.298157%)" offset="0.242188"/><stop stop-opacity="1" stop-color="rgb(17.926025%, 33.192444%, 84.637451%)" offset="0.246094"/><stop stop-opacity="1" stop-color="rgb(18.928528%, 33.236694%, 83.978271%)" offset="0.25"/><stop stop-opacity="1" stop-color="rgb(19.93103%, 33.280945%, 83.317566%)" offset="0.253906"/><stop stop-opacity="1" stop-color="rgb(20.935059%, 33.326721%, 82.65686%)" offset="0.257812"/><stop stop-opacity="1" stop-color="rgb(21.937561%, 33.370972%, 81.996155%)" offset="0.261719"/><stop stop-opacity="1" stop-color="rgb(22.940063%, 33.416748%, 81.335449%)" offset="0.265625"/><stop stop-opacity="1" stop-color="rgb(23.942566%, 33.460999%, 80.674744%)" offset="0.269531"/><stop stop-opacity="1" stop-color="rgb(24.946594%, 33.506775%, 80.015564%)" offset="0.273438"/><stop stop-opacity="1" stop-color="rgb(25.949097%, 33.551025%, 79.354858%)" offset="0.277344"/><stop stop-opacity="1" stop-color="rgb(26.951599%, 33.595276%, 78.694153%)" offset="0.28125"/><stop stop-opacity="1" stop-color="rgb(27.954102%, 33.639526%, 78.033447%)" offset="0.285156"/><stop stop-opacity="1" stop-color="rgb(28.956604%, 33.685303%, 77.374268%)" offset="0.289062"/><stop stop-opacity="1" stop-color="rgb(29.959106%, 33.729553%, 76.713562%)" offset="0.292969"/><stop stop-opacity="1" stop-color="rgb(30.963135%, 33.77533%, 76.052856%)" offset="0.296875"/><stop stop-opacity="1" stop-color="rgb(31.965637%, 33.81958%, 75.392151%)" offset="0.300781"/><stop stop-opacity="1" stop-color="rgb(32.96814%, 33.863831%, 74.731445%)" offset="0.304687"/><stop stop-opacity="1" stop-color="rgb(33.970642%, 33.908081%, 74.07074%)" offset="0.308594"/><stop stop-opacity="1" stop-color="rgb(34.97467%, 33.953857%, 73.41156%)" offset="0.3125"/><stop stop-opacity="1" stop-color="rgb(35.977173%, 33.998108%, 72.750854%)" offset="0.316406"/><stop stop-opacity="1" stop-color="rgb(36.979675%, 34.043884%, 72.090149%)" offset="0.320312"/><stop stop-opacity="1" stop-color="rgb(37.982178%, 34.088135%, 71.429443%)" offset="0.324219"/><stop stop-opacity="1" stop-color="rgb(38.986206%, 34.133911%, 70.768738%)" offset="0.328125"/><stop stop-opacity="1" stop-color="rgb(39.988708%, 34.178162%, 70.108032%)" offset="0.332031"/><stop stop-opacity="1" stop-color="rgb(40.991211%, 34.222412%, 69.448853%)" offset="0.335938"/><stop stop-opacity="1" stop-color="rgb(41.993713%, 34.266663%, 68.788147%)" offset="0.339844"/><stop stop-opacity="1" stop-color="rgb(42.997742%, 34.312439%, 68.127441%)" offset="0.34375"/><stop stop-opacity="1" stop-color="rgb(44.000244%, 34.356689%, 67.466736%)" offset="0.347656"/><stop stop-opacity="1" stop-color="rgb(45.002747%, 34.402466%, 66.807556%)" offset="0.351562"/><stop stop-opacity="1" stop-color="rgb(46.005249%, 34.446716%, 66.146851%)" offset="0.355469"/><stop stop-opacity="1" stop-color="rgb(47.007751%, 34.492493%, 65.486145%)" offset="0.359375"/><stop stop-opacity="1" stop-color="rgb(48.010254%, 34.536743%, 64.825439%)" offset="0.363281"/><stop stop-opacity="1" stop-color="rgb(49.014282%, 34.580994%, 64.164734%)" offset="0.367188"/><stop stop-opacity="1" stop-color="rgb(50.016785%, 34.625244%, 63.504028%)" offset="0.371094"/><stop stop-opacity="1" stop-color="rgb(51.019287%, 34.671021%, 62.844849%)" offset="0.375"/><stop stop-opacity="1" stop-color="rgb(52.02179%, 34.715271%, 62.184143%)" offset="0.378906"/><stop stop-opacity="1" stop-color="rgb(53.025818%, 34.761047%, 61.523438%)" offset="0.382812"/><stop stop-opacity="1" stop-color="rgb(54.02832%, 34.805298%, 60.862732%)" offset="0.386719"/><stop stop-opacity="1" stop-color="rgb(55.030823%, 34.849548%, 60.203552%)" offset="0.390625"/><stop stop-opacity="1" stop-color="rgb(56.033325%, 34.893799%, 59.542847%)" offset="0.394531"/><stop stop-opacity="1" stop-color="rgb(57.037354%, 34.939575%, 58.882141%)" offset="0.398437"/><stop stop-opacity="1" stop-color="rgb(58.039856%, 34.983826%, 58.221436%)" offset="0.402344"/><stop stop-opacity="1" stop-color="rgb(59.042358%, 35.029602%, 57.56073%)" offset="0.40625"/><stop stop-opacity="1" stop-color="rgb(60.044861%, 35.073853%, 56.900024%)" offset="0.410156"/><stop stop-opacity="1" stop-color="rgb(61.048889%, 35.119629%, 56.240845%)" offset="0.414062"/><stop stop-opacity="1" stop-color="rgb(62.051392%, 35.163879%, 55.580139%)" offset="0.417969"/><stop stop-opacity="1" stop-color="rgb(63.053894%, 35.20813%, 54.919434%)" offset="0.421875"/><stop stop-opacity="1" stop-color="rgb(64.056396%, 35.25238%, 54.258728%)" offset="0.425781"/><stop stop-opacity="1" stop-color="rgb(65.058899%, 35.298157%, 53.598022%)" offset="0.429687"/><stop stop-opacity="1" stop-color="rgb(66.061401%, 35.342407%, 52.937317%)" offset="0.433594"/><stop stop-opacity="1" stop-color="rgb(67.06543%, 35.388184%, 52.278137%)" offset="0.4375"/><stop stop-opacity="1" stop-color="rgb(68.067932%, 35.432434%, 51.617432%)" offset="0.441406"/><stop stop-opacity="1" stop-color="rgb(69.070435%, 35.476685%, 50.956726%)" offset="0.445312"/><stop stop-opacity="1" stop-color="rgb(70.072937%, 35.520935%, 50.296021%)" offset="0.449219"/><stop stop-opacity="1" stop-color="rgb(71.076965%, 35.566711%, 49.636841%)" offset="0.453125"/><stop stop-opacity="1" stop-color="rgb(72.079468%, 35.610962%, 48.976135%)" offset="0.457031"/><stop stop-opacity="1" stop-color="rgb(73.08197%, 35.656738%, 48.31543%)" offset="0.460937"/><stop stop-opacity="1" stop-color="rgb(74.084473%, 35.700989%, 47.654724%)" offset="0.464844"/><stop stop-opacity="1" stop-color="rgb(75.088501%, 35.746765%, 46.994019%)" offset="0.46875"/><stop stop-opacity="1" stop-color="rgb(76.091003%, 35.791016%, 46.333313%)" offset="0.472656"/><stop stop-opacity="1" stop-color="rgb(77.093506%, 35.835266%, 45.674133%)" offset="0.476562"/><stop stop-opacity="1" stop-color="rgb(78.096008%, 35.879517%, 45.013428%)" offset="0.480469"/><stop stop-opacity="1" stop-color="rgb(79.098511%, 35.925293%, 44.352722%)" offset="0.484375"/><stop stop-opacity="1" stop-color="rgb(80.101013%, 35.969543%, 43.692017%)" offset="0.488281"/><stop stop-opacity="1" stop-color="rgb(81.105042%, 36.01532%, 43.031311%)" offset="0.492187"/><stop stop-opacity="1" stop-color="rgb(82.107544%, 36.05957%, 42.370605%)" offset="0.496094"/><stop stop-opacity="1" stop-color="rgb(83.110046%, 36.105347%, 41.711426%)" offset="0.5"/><stop stop-opacity="1" stop-color="rgb(84.112549%, 36.149597%, 41.05072%)" offset="0.503906"/><stop stop-opacity="1" stop-color="rgb(85.116577%, 36.193848%, 40.390015%)" offset="0.507812"/><stop stop-opacity="1" stop-color="rgb(86.11908%, 36.238098%, 39.729309%)" offset="0.511719"/><stop stop-opacity="1" stop-color="rgb(87.121582%, 36.283875%, 39.070129%)" offset="0.515625"/><stop stop-opacity="1" stop-color="rgb(88.124084%, 36.328125%, 38.409424%)" offset="0.519531"/><stop stop-opacity="1" stop-color="rgb(89.128113%, 36.373901%, 37.748718%)" offset="0.523438"/><stop stop-opacity="1" stop-color="rgb(90.130615%, 36.418152%, 37.088013%)" offset="0.527344"/><stop stop-opacity="1" stop-color="rgb(91.133118%, 36.462402%, 36.427307%)" offset="0.53125"/><stop stop-opacity="1" stop-color="rgb(92.13562%, 36.506653%, 35.766602%)" offset="0.535156"/><stop stop-opacity="1" stop-color="rgb(93.139648%, 36.552429%, 35.107422%)" offset="0.539062"/><stop stop-opacity="1" stop-color="rgb(94.142151%, 36.59668%, 34.446716%)" offset="0.542969"/><stop stop-opacity="1" stop-color="rgb(95.144653%, 36.642456%, 33.786011%)" offset="0.546875"/><stop stop-opacity="1" stop-color="rgb(96.147156%, 36.686707%, 33.125305%)" offset="0.550781"/><stop stop-opacity="1" stop-color="rgb(97.149658%, 36.732483%, 32.466125%)" offset="0.554687"/><stop stop-opacity="1" stop-color="rgb(98.152161%, 36.776733%, 31.80542%)" offset="0.558594"/><stop stop-opacity="1" stop-color="rgb(99.156189%, 36.820984%, 31.144714%)" offset="0.5625"/><stop stop-opacity="1" stop-color="rgb(99.577332%, 36.990356%, 30.867004%)" offset="0.566406"/><stop stop-opacity="1" stop-color="rgb(100%, 37.161255%, 30.589294%)" offset="0.570312"/><stop stop-opacity="1" stop-color="rgb(100%, 37.42218%, 30.589294%)" offset="0.574219"/><stop stop-opacity="1" stop-color="rgb(100%, 37.683105%, 30.589294%)" offset="0.578125"/><stop stop-opacity="1" stop-color="rgb(100%, 37.944031%, 30.589294%)" offset="0.582031"/><stop stop-opacity="1" stop-color="rgb(100%, 38.204956%, 30.589294%)" offset="0.585937"/><stop stop-opacity="1" stop-color="rgb(100%, 38.465881%, 30.589294%)" offset="0.589844"/><stop stop-opacity="1" stop-color="rgb(100%, 38.726807%, 30.589294%)" offset="0.59375"/><stop stop-opacity="1" stop-color="rgb(100%, 38.987732%, 30.589294%)" offset="0.597656"/><stop stop-opacity="1" stop-color="rgb(100%, 39.248657%, 30.589294%)" offset="0.601562"/><stop stop-opacity="1" stop-color="rgb(100%, 39.509583%, 30.589294%)" offset="0.605469"/><stop stop-opacity="1" stop-color="rgb(100%, 39.770508%, 30.589294%)" offset="0.609375"/><stop stop-opacity="1" stop-color="rgb(100%, 40.031433%, 30.589294%)" offset="0.613281"/><stop stop-opacity="1" stop-color="rgb(100%, 40.292358%, 30.589294%)" offset="0.617187"/><stop stop-opacity="1" stop-color="rgb(100%, 40.553284%, 30.589294%)" offset="0.621094"/><stop stop-opacity="1" stop-color="rgb(100%, 40.814209%, 30.589294%)" offset="0.625"/><stop stop-opacity="1" stop-color="rgb(100%, 41.075134%, 30.589294%)" offset="0.628906"/><stop stop-opacity="1" stop-color="rgb(100%, 41.33606%, 30.589294%)" offset="0.632812"/><stop stop-opacity="1" stop-color="rgb(100%, 41.596985%, 30.589294%)" offset="0.636719"/><stop stop-opacity="1" stop-color="rgb(100%, 41.85791%, 30.589294%)" offset="0.640625"/><stop stop-opacity="1" stop-color="rgb(100%, 42.118835%, 30.589294%)" offset="0.644531"/><stop stop-opacity="1" stop-color="rgb(100%, 42.379761%, 30.589294%)" offset="0.648437"/><stop stop-opacity="1" stop-color="rgb(100%, 42.640686%, 30.589294%)" offset="0.652344"/><stop stop-opacity="1" stop-color="rgb(100%, 42.901611%, 30.589294%)" offset="0.65625"/><stop stop-opacity="1" stop-color="rgb(100%, 43.162537%, 30.589294%)" offset="0.660156"/><stop stop-opacity="1" stop-color="rgb(100%, 43.423462%, 30.589294%)" offset="0.664062"/><stop stop-opacity="1" stop-color="rgb(100%, 43.684387%, 30.589294%)" offset="0.667969"/><stop stop-opacity="1" stop-color="rgb(100%, 43.945312%, 30.589294%)" offset="0.671875"/><stop stop-opacity="1" stop-color="rgb(100%, 44.206238%, 30.589294%)" offset="0.675781"/><stop stop-opacity="1" stop-color="rgb(100%, 44.467163%, 30.589294%)" offset="0.679687"/><stop stop-opacity="1" stop-color="rgb(100%, 44.728088%, 30.589294%)" offset="0.683594"/><stop stop-opacity="1" stop-color="rgb(100%, 44.989014%, 30.589294%)" offset="0.6875"/><stop stop-opacity="1" stop-color="rgb(100%, 45.249939%, 30.589294%)" offset="0.691406"/><stop stop-opacity="1" stop-color="rgb(100%, 45.510864%, 30.589294%)" offset="0.695312"/><stop stop-opacity="1" stop-color="rgb(100%, 45.77179%, 30.589294%)" offset="0.699219"/><stop stop-opacity="1" stop-color="rgb(100%, 46.032715%, 30.589294%)" offset="0.703125"/><stop stop-opacity="1" stop-color="rgb(100%, 46.29364%, 30.589294%)" offset="0.707031"/><stop stop-opacity="1" stop-color="rgb(100%, 46.554565%, 30.589294%)" offset="0.710937"/><stop stop-opacity="1" stop-color="rgb(100%, 46.815491%, 30.589294%)" offset="0.714844"/><stop stop-opacity="1" stop-color="rgb(100%, 47.076416%, 30.589294%)" offset="0.71875"/><stop stop-opacity="1" stop-color="rgb(100%, 47.337341%, 30.589294%)" offset="0.722656"/><stop stop-opacity="1" stop-color="rgb(100%, 47.598267%, 30.589294%)" offset="0.726562"/><stop stop-opacity="1" stop-color="rgb(100%, 47.859192%, 30.589294%)" offset="0.730469"/><stop stop-opacity="1" stop-color="rgb(100%, 48.120117%, 30.589294%)" offset="0.734375"/><stop stop-opacity="1" stop-color="rgb(100%, 48.381042%, 30.589294%)" offset="0.738281"/><stop stop-opacity="1" stop-color="rgb(100%, 48.641968%, 30.589294%)" offset="0.742187"/><stop stop-opacity="1" stop-color="rgb(100%, 48.902893%, 30.589294%)" offset="0.746094"/><stop stop-opacity="1" stop-color="rgb(100%, 49.163818%, 30.589294%)" offset="0.75"/><stop stop-opacity="1" stop-color="rgb(100%, 49.424744%, 30.589294%)" offset="0.753906"/><stop stop-opacity="1" stop-color="rgb(100%, 49.685669%, 30.589294%)" offset="0.757812"/><stop stop-opacity="1" stop-color="rgb(100%, 49.946594%, 30.589294%)" offset="0.761719"/><stop stop-opacity="1" stop-color="rgb(100%, 50.20752%, 30.589294%)" offset="0.765625"/><stop stop-opacity="1" stop-color="rgb(100%, 50.468445%, 30.589294%)" offset="0.769531"/><stop stop-opacity="1" stop-color="rgb(100%, 50.72937%, 30.589294%)" offset="0.773437"/><stop stop-opacity="1" stop-color="rgb(100%, 50.990295%, 30.589294%)" offset="0.777344"/><stop stop-opacity="1" stop-color="rgb(100%, 51.251221%, 30.589294%)" offset="0.78125"/><stop stop-opacity="1" stop-color="rgb(100%, 51.512146%, 30.589294%)" offset="0.785156"/><stop stop-opacity="1" stop-color="rgb(100%, 51.773071%, 30.589294%)" offset="0.789062"/><stop stop-opacity="1" stop-color="rgb(100%, 52.033997%, 30.589294%)" offset="0.792969"/><stop stop-opacity="1" stop-color="rgb(100%, 52.294922%, 30.589294%)" offset="0.796875"/><stop stop-opacity="1" stop-color="rgb(100%, 52.555847%, 30.589294%)" offset="0.800781"/><stop stop-opacity="1" stop-color="rgb(100%, 52.816772%, 30.589294%)" offset="0.804687"/><stop stop-opacity="1" stop-color="rgb(100%, 53.077698%, 30.589294%)" offset="0.808594"/><stop stop-opacity="1" stop-color="rgb(100%, 53.338623%, 30.589294%)" offset="0.8125"/><stop stop-opacity="1" stop-color="rgb(100%, 53.599548%, 30.589294%)" offset="0.816406"/><stop stop-opacity="1" stop-color="rgb(100%, 53.860474%, 30.589294%)" offset="0.820312"/><stop stop-opacity="1" stop-color="rgb(100%, 54.121399%, 30.589294%)" offset="0.824219"/><stop stop-opacity="1" stop-color="rgb(100%, 54.382324%, 30.589294%)" offset="0.828125"/><stop stop-opacity="1" stop-color="rgb(100%, 54.64325%, 30.589294%)" offset="0.832031"/><stop stop-opacity="1" stop-color="rgb(100%, 54.904175%, 30.589294%)" offset="0.835937"/><stop stop-opacity="1" stop-color="rgb(100%, 55.1651%, 30.589294%)" offset="0.839844"/><stop stop-opacity="1" stop-color="rgb(100%, 55.426025%, 30.589294%)" offset="0.84375"/><stop stop-opacity="1" stop-color="rgb(100%, 55.686951%, 30.589294%)" offset="0.847656"/><stop stop-opacity="1" stop-color="rgb(100%, 55.947876%, 30.589294%)" offset="0.851562"/><stop stop-opacity="1" stop-color="rgb(100%, 56.208801%, 30.589294%)" offset="0.855469"/><stop stop-opacity="1" stop-color="rgb(100%, 56.469727%, 30.589294%)" offset="0.859375"/><stop stop-opacity="1" stop-color="rgb(100%, 56.730652%, 30.589294%)" offset="0.863281"/><stop stop-opacity="1" stop-color="rgb(100%, 56.991577%, 30.589294%)" offset="0.867187"/><stop stop-opacity="1" stop-color="rgb(100%, 57.252502%, 30.589294%)" offset="0.871094"/><stop stop-opacity="1" stop-color="rgb(100%, 57.513428%, 30.589294%)" offset="0.875"/><stop stop-opacity="1" stop-color="rgb(100%, 57.774353%, 30.589294%)" offset="0.878906"/><stop stop-opacity="1" stop-color="rgb(100%, 58.035278%, 30.589294%)" offset="0.882812"/><stop stop-opacity="1" stop-color="rgb(100%, 58.296204%, 30.589294%)" offset="0.886719"/><stop stop-opacity="1" stop-color="rgb(100%, 58.557129%, 30.589294%)" offset="0.890625"/><stop stop-opacity="1" stop-color="rgb(100%, 58.818054%, 30.589294%)" offset="0.894531"/><stop stop-opacity="1" stop-color="rgb(100%, 59.078979%, 30.589294%)" offset="0.898437"/><stop stop-opacity="1" stop-color="rgb(100%, 59.339905%, 30.589294%)" offset="0.902344"/><stop stop-opacity="1" stop-color="rgb(100%, 59.60083%, 30.589294%)" offset="0.90625"/><stop stop-opacity="1" stop-color="rgb(100%, 59.861755%, 30.589294%)" offset="0.910156"/><stop stop-opacity="1" stop-color="rgb(100%, 60.122681%, 30.589294%)" offset="0.914062"/><stop stop-opacity="1" stop-color="rgb(100%, 60.383606%, 30.589294%)" offset="0.917969"/><stop stop-opacity="1" stop-color="rgb(100%, 60.644531%, 30.589294%)" offset="0.921875"/><stop stop-opacity="1" stop-color="rgb(100%, 60.905457%, 30.589294%)" offset="0.925781"/><stop stop-opacity="1" stop-color="rgb(100%, 61.166382%, 30.589294%)" offset="0.929688"/><stop stop-opacity="1" stop-color="rgb(100%, 61.427307%, 30.589294%)" offset="0.933594"/><stop stop-opacity="1" stop-color="rgb(100%, 61.688232%, 30.589294%)" offset="0.9375"/><stop stop-opacity="1" stop-color="rgb(100%, 61.824036%, 30.589294%)" offset="1"/></linearGradient><clipPath id="0e17c2980b"><rect x="0" width="450" y="0" height="113"/></clipPath><clipPath id="304a65535a"><path d="M 0.996094 0 L 449.003906 0 L 449.003906 112.003906 L 0.996094 112.003906 Z M 0.996094 0 " clip-rule="nonzero"/></clipPath><clipPath id="3d0c55fc08"><rect x="0" width="450" y="0" height="113"/></clipPath><clipPath id="5f7f6f42d5"><rect x="0" width="450" y="0" height="113"/></clipPath><mask id="2ca1ba3172"><g filter="url(#384e275c20)"><g><g clip-path="url(#5f7f6f42d5)"><g clip-path="url(#304a65535a)"><g><g clip-path="url(#3d0c55fc08)"><g fill="#000000" fill-opacity="1"><g transform="translate(105.279553, 81.912987)"><g><path d="M 36.59375 -27.0625 C 39.65625 -26.40625 42.113281 -24.882812 43.96875 -22.5 C 45.820312 -20.125 46.75 -17.410156 46.75 -14.359375 C 46.75 -9.941406 45.207031 -6.441406 42.125 -3.859375 C 39.039062 -1.285156 34.742188 0 29.234375 0 L 4.65625 0 L 4.65625 -52.765625 L 28.40625 -52.765625 C 33.769531 -52.765625 37.96875 -51.535156 41 -49.078125 C 44.03125 -46.617188 45.546875 -43.285156 45.546875 -39.078125 C 45.546875 -35.972656 44.726562 -33.394531 43.09375 -31.34375 C 41.46875 -29.289062 39.300781 -27.863281 36.59375 -27.0625 Z M 17.515625 -31.421875 L 25.921875 -31.421875 C 28.023438 -31.421875 29.640625 -31.882812 30.765625 -32.8125 C 31.898438 -33.738281 32.46875 -35.101562 32.46875 -36.90625 C 32.46875 -38.707031 31.898438 -40.082031 30.765625 -41.03125 C 29.640625 -41.988281 28.023438 -42.46875 25.921875 -42.46875 L 17.515625 -42.46875 Z M 26.984375 -10.375 C 29.140625 -10.375 30.804688 -10.859375 31.984375 -11.828125 C 33.160156 -12.804688 33.75 -14.222656 33.75 -16.078125 C 33.75 -17.929688 33.132812 -19.382812 31.90625 -20.4375 C 30.675781 -21.488281 28.984375 -22.015625 26.828125 -22.015625 L 17.515625 -22.015625 L 17.515625 -10.375 Z M 26.984375 -10.375 "/></g></g></g><g fill="#000000" fill-opacity="1"><g transform="translate(154.801409, 81.912987)"><g><path d="M 29.609375 0.53125 C 24.648438 0.53125 20.101562 -0.617188 15.96875 -2.921875 C 11.832031 -5.234375 8.550781 -8.453125 6.125 -12.578125 C 3.695312 -16.710938 2.484375 -21.363281 2.484375 -26.53125 C 2.484375 -31.6875 3.695312 -36.316406 6.125 -40.421875 C 8.550781 -44.535156 11.832031 -47.742188 15.96875 -50.046875 C 20.101562 -52.359375 24.648438 -53.515625 29.609375 -53.515625 C 34.566406 -53.515625 39.113281 -52.359375 43.25 -50.046875 C 47.382812 -47.742188 50.640625 -44.535156 53.015625 -40.421875 C 55.398438 -36.316406 56.59375 -31.6875 56.59375 -26.53125 C 56.59375 -21.363281 55.390625 -16.710938 52.984375 -12.578125 C 50.578125 -8.453125 47.316406 -5.234375 43.203125 -2.921875 C 39.097656 -0.617188 34.566406 0.53125 29.609375 0.53125 Z M 29.609375 -11.203125 C 33.816406 -11.203125 37.1875 -12.601562 39.71875 -15.40625 C 42.25 -18.207031 43.515625 -21.914062 43.515625 -26.53125 C 43.515625 -31.1875 42.25 -34.90625 39.71875 -37.6875 C 37.1875 -40.46875 33.816406 -41.859375 29.609375 -41.859375 C 25.347656 -41.859375 21.953125 -40.476562 19.421875 -37.71875 C 16.890625 -34.96875 15.625 -31.238281 15.625 -26.53125 C 15.625 -21.875 16.890625 -18.15625 19.421875 -15.375 C 21.953125 -12.59375 25.347656 -11.203125 29.609375 -11.203125 Z M 29.609375 -11.203125 "/></g></g></g><g fill="#000000" fill-opacity="1"><g transform="translate(213.866939, 81.912987)"><g><path d="M 29.609375 0.53125 C 24.648438 0.53125 20.101562 -0.617188 15.96875 -2.921875 C 11.832031 -5.234375 8.550781 -8.453125 6.125 -12.578125 C 3.695312 -16.710938 2.484375 -21.363281 2.484375 -26.53125 C 2.484375 -31.6875 3.695312 -36.316406 6.125 -40.421875 C 8.550781 -44.535156 11.832031 -47.742188 15.96875 -50.046875 C 20.101562 -52.359375 24.648438 -53.515625 29.609375 -53.515625 C 34.566406 -53.515625 39.113281 -52.359375 43.25 -50.046875 C 47.382812 -47.742188 50.640625 -44.535156 53.015625 -40.421875 C 55.398438 -36.316406 56.59375 -31.6875 56.59375 -26.53125 C 56.59375 -21.363281 55.390625 -16.710938 52.984375 -12.578125 C 50.578125 -8.453125 47.316406 -5.234375 43.203125 -2.921875 C 39.097656 -0.617188 34.566406 0.53125 29.609375 0.53125 Z M 29.609375 -11.203125 C 33.816406 -11.203125 37.1875 -12.601562 39.71875 -15.40625 C 42.25 -18.207031 43.515625 -21.914062 43.515625 -26.53125 C 43.515625 -31.1875 42.25 -34.90625 39.71875 -37.6875 C 37.1875 -40.46875 33.816406 -41.859375 29.609375 -41.859375 C 25.347656 -41.859375 21.953125 -40.476562 19.421875 -37.71875 C 16.890625 -34.96875 15.625 -31.238281 15.625 -26.53125 C 15.625 -21.875 16.890625 -18.15625 19.421875 -15.375 C 21.953125 -12.59375 25.347656 -11.203125 29.609375 -11.203125 Z M 29.609375 -11.203125 "/></g></g></g><g fill="#000000" fill-opacity="1"><g transform="translate(272.93247, 81.912987)"><g><path d="M 35.25 0 L 17.515625 -23.296875 L 17.515625 0 L 4.65625 0 L 4.65625 -52.765625 L 17.515625 -52.765625 L 17.515625 -29.609375 L 35.09375 -52.765625 L 50.203125 -52.765625 L 29.765625 -26.90625 L 50.953125 0 Z M 35.25 0 "/></g></g></g><g fill="#000000" fill-opacity="1"><g transform="translate(325.309927, 81.912987)"><g><path d="M 18.34375 -10.515625 L 41.03125 -10.515625 L 41.03125 0 L 3.75 0 L 3.75 -9.765625 L 26.296875 -42.234375 L 3.75 -42.234375 L 3.75 -52.765625 L 41.03125 -52.765625 L 41.03125 -42.984375 Z M 18.34375 -10.515625 "/></g></g></g><g fill="#000000" fill-opacity="1"><g transform="translate(370.097514, 81.912987)"><g><path d="M 49.90625 -52.765625 L 31.640625 -17.4375 L 31.640625 0 L 18.78125 0 L 18.78125 -17.4375 L 0.53125 -52.765625 L 15.109375 -52.765625 L 25.328125 -30.65625 L 35.46875 -52.765625 Z M 49.90625 -52.765625 "/></g></g></g></g></g></g></g></g></g></mask><clipPath id="6c7a08d045"><path d="M 0.996094 0 L 449.003906 0 L 449.003906 112.003906 L 0.996094 112.003906 Z M 0.996094 0 " clip-rule="nonzero"/></clipPath><clipPath id="5a3b809e11"><rect x="0" width="450" y="0" height="113"/></clipPath><clipPath id="0bb0b44662"><rect x="0" width="450" y="0" height="113"/></clipPath><clipPath id="d6469bbe9e"><rect x="0" width="450" y="0" height="113"/></clipPath></defs><g clip-path="url(#55fa4cfcd7)"><g><g clip-path="url(#d6469bbe9e)"><g clip-path="url(#ff9226ec90)"><g><g clip-path="url(#0bb0b44662)"><g clip-path="url(#4feda6598b)"><g mask="url(#2ca1ba3172)"><g><g clip-path="url(#5a3b809e11)"><g clip-path="url(#6c7a08d045)"><path fill="url(#f243e1e050)" d="M 0.996094 0 L 0.996094 112.003906 L 449.003906 112.003906 L 449.003906 0 Z M 0.996094 0 " fill-rule="nonzero"/></g></g></g></g></g></g></g></g><path fill="#0a53f0" d="M 50.65625 74.179688 L 81.652344 74.179688 C 87.804688 74.179688 90.878906 74.179688 92.792969 72.269531 C 94.703125 70.355469 94.703125 67.28125 94.703125 61.128906 L 94.703125 44.816406 C 94.703125 38.664062 94.703125 35.585938 92.792969 33.675781 C 90.878906 31.765625 87.804688 31.765625 81.652344 31.765625 L 55.550781 31.765625 C 49.398438 31.765625 46.320312 31.765625 44.410156 33.675781 C 42.5 35.585938 42.5 38.664062 42.5 44.816406 L 42.5 82.335938 C 42.5 77.832031 46.148438 74.179688 50.65625 74.179688 Z M 83.003906 52.691406 C 85.550781 50.144531 85.550781 46.011719 83.003906 43.464844 C 80.453125 40.914062 76.324219 40.914062 73.773438 43.464844 L 65.335938 51.898438 L 63.425781 49.988281 C 60.878906 47.441406 56.746094 47.441406 54.199219 49.988281 C 51.648438 52.539062 51.648438 56.667969 54.199219 59.21875 L 58.417969 63.4375 C 62.238281 67.257812 68.4375 67.257812 72.257812 63.4375 Z M 83.003906 52.691406 " fill-opacity="1" fill-rule="evenodd"/><path fill="#0a53f0" d="M 92.792969 72.269531 L 90.484375 69.960938 Z M 92.792969 33.675781 L 90.484375 35.980469 Z M 83.003906 43.464844 L 85.308594 41.15625 Z M 83.003906 52.691406 L 80.695312 50.386719 Z M 73.773438 43.464844 L 71.46875 41.15625 Z M 65.335938 51.898438 L 63.03125 54.207031 L 65.335938 56.515625 L 67.644531 54.207031 Z M 63.425781 49.988281 L 61.121094 52.296875 Z M 54.199219 49.988281 L 56.503906 52.296875 Z M 54.199219 59.21875 L 56.503906 56.910156 Z M 58.417969 63.4375 L 56.109375 65.742188 Z M 72.257812 63.4375 L 69.953125 61.128906 Z M 81.652344 70.917969 L 50.65625 70.917969 L 50.65625 77.441406 L 81.652344 77.441406 Z M 90.484375 69.960938 C 90.234375 70.210938 89.792969 70.515625 88.378906 70.707031 C 86.867188 70.910156 84.820312 70.917969 81.652344 70.917969 L 81.652344 77.441406 C 84.636719 77.441406 87.203125 77.449219 89.246094 77.175781 C 91.386719 76.886719 93.4375 76.238281 95.097656 74.574219 Z M 91.441406 61.128906 C 91.441406 64.296875 91.433594 66.34375 91.230469 67.855469 C 91.039062 69.269531 90.734375 69.714844 90.484375 69.960938 L 95.097656 74.574219 C 96.761719 72.914062 97.410156 70.863281 97.699219 68.722656 C 97.972656 66.679688 97.964844 64.113281 97.964844 61.128906 Z M 91.441406 44.816406 L 91.441406 61.128906 L 97.964844 61.128906 L 97.964844 44.816406 Z M 90.484375 35.980469 C 90.734375 36.230469 91.039062 36.675781 91.230469 38.089844 C 91.433594 39.597656 91.441406 41.648438 91.441406 44.816406 L 97.964844 44.816406 C 97.964844 41.832031 97.972656 39.265625 97.699219 37.21875 C 97.410156 35.082031 96.761719 33.03125 95.097656 31.367188 Z M 81.652344 35.027344 C 84.820312 35.027344 86.867188 35.035156 88.378906 35.238281 C 89.792969 35.425781 90.234375 35.734375 90.484375 35.980469 L 95.097656 31.367188 C 93.4375 29.703125 91.386719 29.054688 89.246094 28.769531 C 87.203125 28.492188 84.636719 28.5 81.652344 28.5 Z M 55.550781 35.027344 L 81.652344 35.027344 L 81.652344 28.5 L 55.550781 28.5 Z M 46.71875 35.980469 C 46.964844 35.734375 47.410156 35.425781 48.824219 35.238281 C 50.332031 35.035156 52.382812 35.027344 55.550781 35.027344 L 55.550781 28.5 C 52.566406 28.5 50 28.492188 47.953125 28.769531 C 45.816406 29.054688 43.765625 29.703125 42.101562 31.367188 Z M 45.761719 44.816406 C 45.761719 41.648438 45.769531 39.597656 45.972656 38.089844 C 46.160156 36.675781 46.46875 36.230469 46.71875 35.980469 L 42.101562 31.367188 C 40.441406 33.03125 39.792969 35.082031 39.503906 37.21875 C 39.230469 39.265625 39.234375 41.832031 39.234375 44.816406 Z M 45.761719 82.335938 L 45.761719 44.816406 L 39.234375 44.816406 L 39.234375 82.335938 Z M 50.65625 70.917969 C 44.347656 70.917969 39.234375 76.03125 39.234375 82.335938 L 45.761719 82.335938 C 45.761719 79.632812 47.953125 77.441406 50.65625 77.441406 Z M 80.695312 45.769531 C 81.96875 47.042969 81.96875 49.109375 80.695312 50.386719 L 85.308594 55 C 89.132812 51.175781 89.132812 44.980469 85.308594 41.15625 Z M 76.082031 45.769531 C 77.355469 44.496094 79.421875 44.496094 80.695312 45.769531 L 85.308594 41.15625 C 81.488281 37.332031 75.289062 37.332031 71.46875 41.15625 Z M 67.644531 54.207031 L 76.082031 45.769531 L 71.46875 41.15625 L 63.03125 49.59375 Z M 61.121094 52.296875 L 63.03125 54.207031 L 67.644531 49.59375 L 65.734375 47.683594 Z M 56.503906 52.296875 C 57.78125 51.023438 59.84375 51.023438 61.121094 52.296875 L 65.734375 47.683594 C 61.910156 43.859375 55.714844 43.859375 51.890625 47.683594 Z M 56.503906 56.910156 C 55.230469 55.636719 55.230469 53.570312 56.503906 52.296875 L 51.890625 47.683594 C 48.066406 51.503906 48.066406 57.703125 51.890625 61.523438 Z M 60.722656 61.128906 L 56.503906 56.910156 L 51.890625 61.523438 L 56.109375 65.742188 Z M 69.953125 61.128906 C 67.402344 63.675781 63.273438 63.675781 60.722656 61.128906 L 56.109375 65.742188 C 61.207031 70.839844 69.46875 70.839844 74.566406 65.742188 Z M 80.695312 50.386719 L 69.953125 61.128906 L 74.566406 65.742188 L 85.308594 55 Z M 65.335938 87.230469 L 50.65625 87.230469 L 50.65625 93.757812 L 65.335938 93.757812 Z M 39.234375 82.335938 C 39.234375 88.644531 44.347656 93.757812 50.65625 93.757812 L 50.65625 87.230469 C 47.953125 87.230469 45.761719 85.039062 45.761719 82.335938 Z M 39.234375 82.335938 " fill-opacity="1" fill-rule="nonzero"/><path stroke-linecap="round" transform="matrix(3.26278, 0, 0, 3.26278, 29.447259, 21.975461)" fill="none" stroke-linejoin="miter" d="M 20.000079 20.999491 L 9.999741 20.999491 " stroke="#222222" stroke-width="2" stroke-opacity="1" stroke-miterlimit="4"/></g></g></g></svg>