<svg xmlns="http://www.w3.org/2000/svg" xmlns:xlink="http://www.w3.org/1999/xlink" width="300" zoomAndPan="magnify" viewBox="0 0 224.87999 74.999997" height="100" preserveAspectRatio="xMidYMid meet" version="1.0"><defs><g/><clipPath id="f163f6a170"><path d="M 3 10 L 50 10 L 50 61.585938 L 3 61.585938 Z M 3 10 " clip-rule="nonzero"/></clipPath><clipPath id="d20ab2413c"><path d="M 18 56 L 50 56 L 50 61.585938 L 18 61.585938 Z M 18 56 " clip-rule="nonzero"/></clipPath><clipPath id="6b0e4f1cf5"><rect x="0" width="208" y="0" height="62"/></clipPath></defs><g transform="matrix(1, 0, 0, 1, 6, 2)"><g clip-path="url(#6b0e4f1cf5)"><path fill="#0a53f0" d="M 12.351562 46.167969 L 36.488281 46.167969 C 41.28125 46.167969 43.675781 46.167969 45.164062 44.679688 C 46.652344 43.191406 46.652344 40.796875 46.652344 36.003906 L 46.652344 23.300781 C 46.652344 18.511719 46.652344 16.113281 45.164062 14.625 C 43.675781 13.136719 41.28125 13.136719 36.488281 13.136719 L 16.164062 13.136719 C 11.371094 13.136719 8.976562 13.136719 7.488281 14.625 C 6 16.113281 6 18.511719 6 23.300781 L 6 52.519531 C 6 49.011719 8.84375 46.167969 12.351562 46.167969 Z M 37.542969 29.433594 C 39.527344 27.449219 39.527344 24.234375 37.542969 22.25 C 35.558594 20.265625 32.339844 20.265625 30.355469 22.25 L 23.785156 28.820312 L 22.296875 27.332031 C 20.3125 25.34375 17.09375 25.34375 15.109375 27.332031 C 13.125 29.316406 13.125 32.53125 15.109375 34.515625 L 18.394531 37.800781 C 21.371094 40.777344 26.199219 40.777344 29.175781 37.800781 Z M 37.542969 29.433594 " fill-opacity="1" fill-rule="evenodd"/><g clip-path="url(#f163f6a170)"><path fill="#0a53f0" d="M 45.164062 44.679688 L 43.367188 42.882812 Z M 45.164062 14.625 L 43.367188 16.421875 Z M 37.542969 22.25 L 39.339844 20.453125 Z M 37.542969 29.433594 L 35.746094 27.636719 Z M 30.355469 22.25 L 28.558594 20.453125 Z M 23.785156 28.820312 L 21.988281 30.613281 L 23.785156 32.410156 L 25.582031 30.613281 Z M 22.296875 27.332031 L 20.5 29.125 Z M 15.109375 27.332031 L 16.90625 29.125 Z M 15.109375 34.515625 L 16.90625 32.71875 Z M 18.394531 37.800781 L 16.597656 39.597656 Z M 29.175781 37.800781 L 27.378906 36.003906 Z M 36.488281 43.625 L 12.351562 43.625 L 12.351562 48.707031 L 36.488281 48.707031 Z M 43.367188 42.882812 C 43.175781 43.074219 42.828125 43.316406 41.726562 43.464844 C 40.550781 43.621094 38.957031 43.625 36.488281 43.625 L 36.488281 48.707031 C 38.8125 48.707031 40.8125 48.714844 42.402344 48.5 C 44.070312 48.277344 45.664062 47.769531 46.960938 46.476562 Z M 44.113281 36.003906 C 44.113281 38.472656 44.105469 40.066406 43.949219 41.242188 C 43.800781 42.34375 43.5625 42.6875 43.367188 42.882812 L 46.960938 46.476562 C 48.253906 45.179688 48.761719 43.585938 48.984375 41.917969 C 49.199219 40.328125 49.191406 38.328125 49.191406 36.003906 Z M 44.113281 23.300781 L 44.113281 36.003906 L 49.191406 36.003906 L 49.191406 23.300781 Z M 43.367188 16.421875 C 43.5625 16.617188 43.800781 16.960938 43.949219 18.0625 C 44.105469 19.238281 44.113281 20.832031 44.113281 23.300781 L 49.191406 23.300781 C 49.191406 20.976562 49.199219 18.980469 48.984375 17.386719 C 48.761719 15.722656 48.253906 14.125 46.960938 12.828125 Z M 36.488281 15.679688 C 38.957031 15.679688 40.550781 15.683594 41.726562 15.84375 C 42.828125 15.992188 43.175781 16.230469 43.367188 16.421875 L 46.960938 12.828125 C 45.664062 11.535156 44.070312 11.03125 42.402344 10.804688 C 40.8125 10.59375 38.8125 10.597656 36.488281 10.597656 Z M 16.164062 15.679688 L 36.488281 15.679688 L 36.488281 10.597656 L 16.164062 10.597656 Z M 9.285156 16.421875 C 9.480469 16.230469 9.824219 15.992188 10.925781 15.84375 C 12.101562 15.683594 13.695312 15.679688 16.164062 15.679688 L 16.164062 10.597656 C 13.839844 10.597656 11.839844 10.59375 10.25 10.804688 C 8.582031 11.03125 6.988281 11.535156 5.691406 12.828125 Z M 8.542969 23.300781 C 8.542969 20.832031 8.546875 19.238281 8.703125 18.0625 C 8.851562 16.960938 9.09375 16.617188 9.285156 16.421875 L 5.691406 12.828125 C 4.398438 14.125 3.890625 15.722656 3.667969 17.386719 C 3.453125 18.980469 3.460938 20.976562 3.460938 23.300781 Z M 8.542969 52.519531 L 8.542969 23.300781 L 3.460938 23.300781 L 3.460938 52.519531 Z M 12.351562 43.625 C 7.441406 43.625 3.460938 47.609375 3.460938 52.519531 L 8.542969 52.519531 C 8.542969 50.414062 10.246094 48.707031 12.351562 48.707031 Z M 35.746094 24.046875 C 36.738281 25.039062 36.738281 26.644531 35.746094 27.636719 L 39.339844 31.230469 C 42.316406 28.253906 42.316406 23.429688 39.339844 20.453125 Z M 32.152344 24.046875 C 33.144531 23.054688 34.753906 23.054688 35.746094 24.046875 L 39.339844 20.453125 C 36.363281 17.476562 31.535156 17.476562 28.558594 20.453125 Z M 25.582031 30.613281 L 32.152344 24.046875 L 28.558594 20.453125 L 21.988281 27.023438 Z M 20.5 29.125 L 21.988281 30.613281 L 25.582031 27.023438 L 24.09375 25.535156 Z M 16.90625 29.125 C 17.898438 28.132812 19.507812 28.132812 20.5 29.125 L 24.09375 25.535156 C 21.117188 22.558594 16.292969 22.558594 13.316406 25.535156 Z M 16.90625 32.71875 C 15.914062 31.726562 15.914062 30.117188 16.90625 29.125 L 13.316406 25.535156 C 10.339844 28.511719 10.339844 33.335938 13.316406 36.3125 Z M 20.191406 36.003906 L 16.90625 32.71875 L 13.316406 36.3125 L 16.597656 39.597656 Z M 27.378906 36.003906 C 25.394531 37.988281 22.175781 37.988281 20.191406 36.003906 L 16.597656 39.597656 C 20.566406 43.566406 27.003906 43.566406 30.972656 39.597656 Z M 35.746094 27.636719 L 27.378906 36.003906 L 30.972656 39.597656 L 39.339844 31.230469 Z M 23.785156 56.332031 L 12.351562 56.332031 L 12.351562 61.410156 L 23.785156 61.410156 Z M 3.460938 52.519531 C 3.460938 57.429688 7.441406 61.410156 12.351562 61.410156 L 12.351562 56.332031 C 10.246094 56.332031 8.542969 54.625 8.542969 52.519531 Z M 3.460938 52.519531 " fill-opacity="1" fill-rule="nonzero"/></g><g clip-path="url(#d20ab2413c)"><path stroke-linecap="round" transform="matrix(2.540723, 0, 0, 2.540723, -4.162217, 5.515999)" fill="none" stroke-linejoin="miter" d="M 20.000037 20.999963 L 10.000424 20.999963 " stroke="#222222" stroke-width="2" stroke-opacity="1" stroke-miterlimit="4"/></g><g fill="#0a53f0" fill-opacity="1"><g transform="translate(50.966435, 44.298235)"><g><path d="M 20.890625 -14.953125 C 22.597656 -14.566406 23.953125 -13.71875 24.953125 -12.40625 C 25.960938 -11.101562 26.46875 -9.609375 26.46875 -7.921875 C 26.46875 -5.453125 25.613281 -3.515625 23.90625 -2.109375 C 22.195312 -0.703125 19.800781 0 16.71875 0 L 2.3125 0 L 2.3125 -29.109375 L 16.265625 -29.109375 C 19.242188 -29.109375 21.578125 -28.445312 23.265625 -27.125 C 24.960938 -25.8125 25.8125 -23.957031 25.8125 -21.5625 C 25.8125 -19.851562 25.363281 -18.425781 24.46875 -17.28125 C 23.570312 -16.132812 22.378906 -15.359375 20.890625 -14.953125 Z M 10.40625 -17.546875 L 14.5 -17.546875 C 16.53125 -17.546875 17.546875 -18.390625 17.546875 -20.078125 C 17.546875 -21.804688 16.53125 -22.671875 14.5 -22.671875 L 10.40625 -22.671875 Z M 15.109375 -6.53125 C 17.148438 -6.53125 18.171875 -7.378906 18.171875 -9.078125 C 18.171875 -9.960938 17.898438 -10.640625 17.359375 -11.109375 C 16.828125 -11.578125 16.066406 -11.8125 15.078125 -11.8125 L 10.40625 -11.8125 L 10.40625 -6.53125 Z M 15.109375 -6.53125 "/></g></g></g><g fill="#0a53f0" fill-opacity="1"><g transform="translate(78.675934, 44.298235)"><g><path d="M 13.09375 0.296875 C 10.78125 0.296875 8.707031 -0.1875 6.875 -1.15625 C 5.039062 -2.125 3.597656 -3.5 2.546875 -5.28125 C 1.503906 -7.070312 0.984375 -9.179688 0.984375 -11.609375 C 0.984375 -14.003906 1.515625 -16.09375 2.578125 -17.875 C 3.640625 -19.664062 5.082031 -21.039062 6.90625 -22 C 8.738281 -22.96875 10.8125 -23.453125 13.125 -23.453125 C 15.4375 -23.453125 17.507812 -22.96875 19.34375 -22 C 21.175781 -21.039062 22.625 -19.664062 23.6875 -17.875 C 24.75 -16.09375 25.28125 -14.003906 25.28125 -11.609375 C 25.28125 -9.210938 24.75 -7.113281 23.6875 -5.3125 C 22.625 -3.507812 21.171875 -2.125 19.328125 -1.15625 C 17.484375 -0.1875 15.40625 0.296875 13.09375 0.296875 Z M 13.09375 -6.734375 C 14.21875 -6.734375 15.160156 -7.148438 15.921875 -7.984375 C 16.679688 -8.828125 17.0625 -10.035156 17.0625 -11.609375 C 17.0625 -13.171875 16.679688 -14.363281 15.921875 -15.1875 C 15.160156 -16.019531 14.226562 -16.4375 13.125 -16.4375 C 12.03125 -16.4375 11.109375 -16.019531 10.359375 -15.1875 C 9.617188 -14.363281 9.25 -13.171875 9.25 -11.609375 C 9.25 -10.003906 9.601562 -8.789062 10.3125 -7.96875 C 11.03125 -7.144531 11.957031 -6.734375 13.09375 -6.734375 Z M 13.09375 -6.734375 "/></g></g></g><g fill="#0a53f0" fill-opacity="1"><g transform="translate(104.94008, 44.298235)"><g><path d="M 13.09375 0.296875 C 10.78125 0.296875 8.707031 -0.1875 6.875 -1.15625 C 5.039062 -2.125 3.597656 -3.5 2.546875 -5.28125 C 1.503906 -7.070312 0.984375 -9.179688 0.984375 -11.609375 C 0.984375 -14.003906 1.515625 -16.09375 2.578125 -17.875 C 3.640625 -19.664062 5.082031 -21.039062 6.90625 -22 C 8.738281 -22.96875 10.8125 -23.453125 13.125 -23.453125 C 15.4375 -23.453125 17.507812 -22.96875 19.34375 -22 C 21.175781 -21.039062 22.625 -19.664062 23.6875 -17.875 C 24.75 -16.09375 25.28125 -14.003906 25.28125 -11.609375 C 25.28125 -9.210938 24.75 -7.113281 23.6875 -5.3125 C 22.625 -3.507812 21.171875 -2.125 19.328125 -1.15625 C 17.484375 -0.1875 15.40625 0.296875 13.09375 0.296875 Z M 13.09375 -6.734375 C 14.21875 -6.734375 15.160156 -7.148438 15.921875 -7.984375 C 16.679688 -8.828125 17.0625 -10.035156 17.0625 -11.609375 C 17.0625 -13.171875 16.679688 -14.363281 15.921875 -15.1875 C 15.160156 -16.019531 14.226562 -16.4375 13.125 -16.4375 C 12.03125 -16.4375 11.109375 -16.019531 10.359375 -15.1875 C 9.617188 -14.363281 9.25 -13.171875 9.25 -11.609375 C 9.25 -10.003906 9.601562 -8.789062 10.3125 -7.96875 C 11.03125 -7.144531 11.957031 -6.734375 13.09375 -6.734375 Z M 13.09375 -6.734375 "/></g></g></g><g fill="#0a53f0" fill-opacity="1"><g transform="translate(131.204226, 44.298235)"><g><path d="M 16.8125 0 L 10.40625 -9.5 L 10.40625 0 L 2.3125 0 L 2.3125 -30.5625 L 10.40625 -30.5625 L 10.40625 -14.078125 L 16.8125 -23.171875 L 26.515625 -23.171875 L 17.390625 -11.515625 L 26.671875 0 Z M 16.8125 0 "/></g></g></g><g fill="#0a53f0" fill-opacity="1"><g transform="translate(157.922628, 44.298235)"><g><path d="M 10 -6.734375 L 19.859375 -6.734375 L 19.859375 0 L 1.078125 0 L 1.078125 -6.40625 L 10.28125 -16.4375 L 1.15625 -16.4375 L 1.15625 -23.171875 L 19.53125 -23.171875 L 19.53125 -16.765625 Z M 10 -6.734375 "/></g></g></g><g fill="#0a53f0" fill-opacity="1"><g transform="translate(178.859608, 44.298235)"><g><path d="M 27.25 -23.171875 L 12.546875 11.03125 L 3.765625 11.03125 L 9.296875 -0.984375 L -0.203125 -23.171875 L 8.796875 -23.171875 L 13.671875 -10.03125 L 18.375 -23.171875 Z M 27.25 -23.171875 "/></g></g></g></g></g></svg>